<svg xmlns="http://www.w3.org/2000/svg" xmlns:xlink="http://www.w3.org/1999/xlink" width="59.998" height="60.004" viewBox="0 0 59.998 60.004">
  <defs>
    <linearGradient id="linear-gradient" x1="0.87" y1="0.133" x2="0.5" y2="1" gradientUnits="objectBoundingBox">
      <stop offset="0" stop-color="#4CFE9E"/>
      <stop offset="1" stop-color="#4CFE9E"/>
    </linearGradient>
  </defs>
  <path id="left_arrow" data-name="left arrow" d="M21801-2031a3,3,0,0,1,3-3,3,3,0,0,1,3,3,3,3,0,0,1-3,3A3,3,0,0,1,21801-2031Zm-9,0a3,3,0,0,1,3-3,3,3,0,0,1,3,3,3.005,3.005,0,0,1-3,3A3.006,3.006,0,0,1,21792-2031Zm-9,0a3,3,0,0,1,3-3,3,3,0,0,1,3,3,3,3,0,0,1-3,3A3,3,0,0,1,21783-2031Zm-9,0a3,3,0,0,1,3-3,3,3,0,0,1,3,3,3.005,3.005,0,0,1-3,3A3.006,3.006,0,0,1,21774-2031Zm18-9a3,3,0,0,1,3-3,3,3,0,0,1,3,3,3,3,0,0,1-3,3A3,3,0,0,1,21792-2040Zm-9,0a3,3,0,0,1,3-3,3,3,0,0,1,3,3,3,3,0,0,1-3,3A3,3,0,0,1,21783-2040Zm-9,0a3,3,0,0,1,3-3,3,3,0,0,1,3,3,3,3,0,0,1-3,3A3,3,0,0,1,21774-2040Zm-9,0a3,3,0,0,1,3-3,3,3,0,0,1,3,3,3,3,0,0,1-3,3A3,3,0,0,1,21765-2040Zm18-9a3,3,0,0,1,3-3,3,3,0,0,1,3,3,3,3,0,0,1-3,3A3,3,0,0,1,21783-2049Zm-9,0a3,3,0,0,1,3-3,3,3,0,0,1,3,3,3.005,3.005,0,0,1-3,3A3.006,3.006,0,0,1,21774-2049Zm-9,0a3,3,0,0,1,3-3,3,3,0,0,1,3,3,3,3,0,0,1-3,3A3,3,0,0,1,21765-2049Zm-9,0a3,3,0,0,1,3-3,3,3,0,0,1,3,3,3.005,3.005,0,0,1-3,3A3,3,0,0,1,21756-2049Zm18-9a3,3,0,0,1,3-3,3,3,0,0,1,3,3,3,3,0,0,1-3,3A3,3,0,0,1,21774-2058Zm-9,0a3,3,0,0,1,3-3,3,3,0,0,1,3,3,3,3,0,0,1-3,3A3,3,0,0,1,21765-2058Zm-9,0a3,3,0,0,1,3-3,3,3,0,0,1,3,3,3,3,0,0,1-3,3A3,3,0,0,1,21756-2058Zm-9,0a3,3,0,0,1,3-3,3,3,0,0,1,3,3,3,3,0,0,1-3,3A3,3,0,0,1,21747-2058Zm36-9a3,3,0,0,1,3-3,3,3,0,0,1,3,3,3,3,0,0,1-3,3A3,3,0,0,1,21783-2067Zm-9,0a3.006,3.006,0,0,1,3-3,3.005,3.005,0,0,1,3,3,3,3,0,0,1-3,3A3,3,0,0,1,21774-2067Zm-9,0a3,3,0,0,1,3-3,3,3,0,0,1,3,3,3,3,0,0,1-3,3A3,3,0,0,1,21765-2067Zm-9,0a3,3,0,0,1,3-3,3.005,3.005,0,0,1,3,3,3,3,0,0,1-3,3A3,3,0,0,1,21756-2067Zm36-9a3,3,0,0,1,3-3,3,3,0,0,1,3,3,3,3,0,0,1-3,3A3,3,0,0,1,21792-2076Zm-9,0a3,3,0,0,1,3-3,3,3,0,0,1,3,3,3,3,0,0,1-3,3A3,3,0,0,1,21783-2076Zm-9,0a3,3,0,0,1,3-3,3,3,0,0,1,3,3,3,3,0,0,1-3,3A3,3,0,0,1,21774-2076Zm-9,0a3,3,0,0,1,3-3,3,3,0,0,1,3,3,3,3,0,0,1-3,3A3,3,0,0,1,21765-2076Zm36-9a3,3,0,0,1,3-3,3,3,0,0,1,3,3,3,3,0,0,1-3,3A3,3,0,0,1,21801-2085Zm-9,0a3.006,3.006,0,0,1,3-3,3.006,3.006,0,0,1,3,3,3,3,0,0,1-3,3A3,3,0,0,1,21792-2085Zm-9,0a3,3,0,0,1,3-3,3,3,0,0,1,3,3,3,3,0,0,1-3,3A3,3,0,0,1,21783-2085Zm-9,0a3.006,3.006,0,0,1,3-3,3.006,3.006,0,0,1,3,3,3,3,0,0,1-3,3A3,3,0,0,1,21774-2085Z" transform="translate(-21747.002 2088.002)" fill="url(#linear-gradient)"/>
</svg>
