<svg xmlns="http://www.w3.org/2000/svg" xmlns:xlink="http://www.w3.org/1999/xlink" width="59.998" height="60.004" viewBox="0 0 59.998 60.004">
  <defs>
    <linearGradient id="linear-gradient" x1="0.87" y1="0.867" x2="0.5" gradientUnits="objectBoundingBox">
      <stop offset="0" stop-color="#4CFE9E"/>
      <stop offset="1" stop-color="#4CFE9E"/>
    </linearGradient>
  </defs>
  <path id="right_arrow" data-name="right arrow" d="M54,3a3,3,0,1,0,3-3A3,3,0,0,0,54,3ZM45,3a3,3,0,1,0,3-3A3,3,0,0,0,45,3ZM36,3a3,3,0,1,0,3-3A3,3,0,0,0,36,3ZM27,3a3,3,0,1,0,3-3A3,3,0,0,0,27,3Zm18,9a3,3,0,1,0,3-3A3,3,0,0,0,45,12Zm-9,0a3,3,0,1,0,3-3A3,3,0,0,0,36,12Zm-9,0a3,3,0,1,0,3-3A3,3,0,0,0,27,12Zm-9,0a3,3,0,1,0,3-3A3,3,0,0,0,18,12Zm18,9a3,3,0,1,0,3-3A3,3,0,0,0,36,21Zm-9,0a3,3,0,1,0,3-3A3,3,0,0,0,27,21Zm-9,0a3,3,0,1,0,3-3A3,3,0,0,0,18,21ZM9,21a3,3,0,1,0,3-3A3,3,0,0,0,9,21Zm18,9a3,3,0,1,0,3-3A3,3,0,0,0,27,30Zm-9,0a3,3,0,1,0,3-3A3,3,0,0,0,18,30ZM9,30a3,3,0,1,0,3-3A3,3,0,0,0,9,30ZM0,30a3,3,0,1,0,3-3A3,3,0,0,0,0,30Zm36,9a3,3,0,1,0,3-3A3,3,0,0,0,36,39Zm-9,0a3,3,0,1,0,3-3A3.006,3.006,0,0,0,27,39Zm-9,0a3,3,0,1,0,3-3A3,3,0,0,0,18,39ZM9,39a3,3,0,1,0,3-3A3,3,0,0,0,9,39Zm36,9a3,3,0,1,0,3-3A3,3,0,0,0,45,48Zm-9,0a3,3,0,1,0,3-3A3,3,0,0,0,36,48Zm-9,0a3,3,0,1,0,3-3A3,3,0,0,0,27,48Zm-9,0a3,3,0,1,0,3-3A3,3,0,0,0,18,48Zm36,9a3,3,0,1,0,3-3A3,3,0,0,0,54,57Zm-9,0a3,3,0,1,0,3-3A3.006,3.006,0,0,0,45,57Zm-9,0a3,3,0,1,0,3-3A3,3,0,0,0,36,57Zm-9,0a3,3,0,1,0,3-3A3.006,3.006,0,0,0,27,57Z" transform="translate(59.998 60.004) rotate(180)" fill="url(#linear-gradient)"/>
</svg>
